<svg width="400" height="48" viewBox="0 0 400 48" fill="none" xmlns="http://www.w3.org/2000/svg">
<path fill-rule="evenodd" clip-rule="evenodd" d="M319.796 48V1.75916H311.185L311.347 28.4817L281.289 0H280.964V46.1571H289.575L289.413 19.9372L319.552 48H319.796ZM232.149 45.2355C229.793 46.157 227.194 46.6596 224.351 46.6596C219.882 46.6596 215.983 45.6544 212.652 43.6439C209.321 41.6334 206.803 38.9528 205.016 35.5183C203.229 32.0837 202.416 28.3978 202.416 24.2931C202.416 19.8533 203.31 15.8324 205.016 12.3141C206.803 8.79575 209.24 6.11512 212.408 4.10465C215.577 2.17795 219.233 1.17271 223.376 1.17271C225.975 1.17271 228.412 1.50779 230.606 2.26172C232.799 3.01564 234.749 3.85334 236.455 4.94234L233.124 13.2355C230.037 10.8062 226.869 9.63344 223.619 9.63344C221.426 9.63344 219.395 10.2198 217.445 11.4764C215.496 12.7329 214.033 14.4083 212.896 16.5863C211.759 18.7643 211.19 21.1099 211.19 23.7067C211.19 26.5549 211.677 29.068 212.733 31.246C213.79 33.424 215.252 35.0994 217.202 36.2722C219.151 37.445 221.426 38.1151 224.026 38.1151C226.138 38.1151 228.006 37.78 229.712 37.0261C231.418 36.3559 232.718 35.5183 233.693 34.513L237.186 42.3874C236.293 43.3926 234.505 44.3141 232.149 45.2355ZM271.002 38.7853V46.0733H247.118V38.7853H271.002ZM329.579 1.76401H342.415C347.939 1.76401 352.407 2.85302 355.982 5.03103C359.556 7.20904 362.075 10.0572 363.699 13.5755C365.324 17.0939 366.137 20.7797 366.137 24.8007C366.137 29.0729 365.162 32.8425 363.212 36.1096C361.262 39.3766 358.663 41.8897 355.332 43.6488C352.001 45.408 348.427 46.2457 344.446 46.2457H329.498V1.76401H329.579ZM343.146 37.7012C347.533 37.7012 351.026 36.5284 353.626 34.1829C356.225 31.8373 357.525 28.4865 357.525 24.1305C357.525 20.6122 356.794 17.764 355.413 15.6698C353.951 13.5755 352.326 12.1514 350.457 11.3137C348.589 10.4761 346.802 10.141 345.096 10.141H338.19V37.7012H343.146ZM400 46.0733V38.7853H376.116V46.0733H400Z" fill="#94A3B8"/>
<path d="M26.1588 39.101H11.8608L8.36756 47.8131H0L19.416 1.65601H19.9034L39.3194 47.8131H29.4895L26.1588 39.101ZM23.3967 31.7293L19.2535 20.923L14.8666 31.7293H23.3967Z" fill="#F8FAFC"/>
<path d="M68.484 47.813L59.4665 33.6559H53.7799V47.7292H45.3311V3.3313H58.4104C63.7722 3.3313 67.9153 4.67161 70.8399 7.35224C73.7645 10.0329 75.2268 13.635 75.2268 18.3261C75.2268 21.0905 74.6581 23.6035 73.5208 26.0329C72.3834 28.4622 70.6774 30.3051 68.4028 31.6454L78.3951 47.7292H68.484V47.813ZM53.7799 25.1952H59.7915C62.0662 25.1952 63.7722 24.525 64.8283 23.1009C65.8844 21.6768 66.3718 20.2528 66.3718 18.5774C66.3718 16.9857 65.8844 15.3941 64.9907 13.97C64.0971 12.4622 62.3911 11.792 59.7915 11.792H53.6986V25.1952H53.7799Z" fill="#F8FAFC"/>
<path d="M93.5867 3.41528V47.8132H85.1379V3.41528H93.5867Z" fill="#F8FAFC"/>
<path d="M133.8 3.41528V11.876H112.921V21.342H131.444V29.8027H112.921V39.3525H134.612V47.8132H104.391V3.41528H133.8Z" fill="#F8FAFC"/>
<path d="M151.591 3.41528V39.3525H171.819V47.8132H143.061V3.41528H151.591Z" fill="#F8FAFC"/>
</svg>
